Coordinates
version=1
nRows=10
nColumns=40
inDegrees=yes

Units are S.I. units (second, meters, Newtons, ...)
Angles are in degrees.

endheader
time	pelvis_tilt	pelvis_list	pelvis_rotation	pelvis_tx	pelvis_ty	pelvis_tz	hip_flexion_r	hip_adduction_r	hip_rotation_r	knee_angle_r	knee_angle_r_beta	ankle_angle_r	subtalar_angle_r	mtp_angle_r	hip_flexion_l	hip_adduction_l	hip_rotation_l	knee_angle_l	knee_angle_l_beta	ankle_angle_l	subtalar_angle_l	mtp_angle_l	lumbar_extension	lumbar_bending	lumbar_rotation	arm_flex_r	arm_add_r	arm_rot_r	elbow_flex_r	pro_sup_r	wrist_flex_r	wrist_dev_r	arm_flex_l	arm_add_l	arm_rot_l	elbow_flex_l	pro_sup_l	wrist_flex_l	wrist_dev_l
     38.74000000	     -8.02855010	     -2.92746866	      1.91119599	      1.02993065	      0.91852109	      0.42403121	     33.31455798	     -5.09231659	    -14.39842372	     18.86216656	     18.86216656	      0.91877191	     -1.94135834	      7.80554372	      7.68287625	     -5.24689896	     -7.93011664	     16.78287588	     16.78287588	     19.05750206	     -1.07057986	     -3.27097994	    -11.97472774	      3.16642944	      1.30432778	    -13.62595937	    -18.01706670	     -2.39559961	     29.74797363	     47.13954176	      0.00000000	      0.00000000	     12.82036325	    -15.76043755	    -15.31044759	     90.90852174	     47.96815120	      0.00000000	      0.00000000
     38.75200000	     -8.19298193	     -2.92801912	      2.03511507	      1.03147407	      0.91652829	      0.42671288	     32.60962346	     -4.73053389	    -15.10762137	     17.57228803	     17.57228803	      0.69327155	     -1.40222996	      8.08479356	      7.28694308	     -5.43175289	     -7.73996594	     16.83360516	     16.83360516	     19.55872535	     -1.15117958	     -3.35696245	    -11.44052005	      3.17293466	      1.37059923	    -14.40481546	    -17.77711540	     -2.45646619	     29.78908447	     47.12533274	      0.00000000	      0.00000000	     12.74323439	    -15.65707285	    -15.32790643	     91.62490801	     47.98819060	      0.00000000	      0.00000000
     38.76400000	     -8.21953565	     -2.97150392	      2.16118168	      1.03317577	      0.91473353	      0.42939507	     31.85075012	     -4.43442751	    -16.09774705	     16.80057322	     16.80057322	      0.37635254	     -0.58540474	      7.04390393	      6.82366246	     -5.69385614	     -7.56832929	     17.08046855	     17.08046855	     20.32626971	     -1.15668692	     -2.85594175	    -11.16044843	      3.23345890	      1.38126695	    -15.41089590	    -17.65368381	     -2.99668964	     31.23686289	     47.04016851	      0.00000000	      0.00000000	     12.15216431	    -15.52422448	    -15.23959754	     93.55585901	     48.04913331	      0.00000000	      0.00000000
     38.77600000	     -8.31294128	     -3.10059122	      2.26566432	      1.03466030	      0.91307100	      0.43220074	     31.29289494	     -4.01242246	    -16.61580554	     16.43093254	     16.43093254	      0.25611333	     -0.52082135	      6.53084927	      6.58144784	     -6.05230546	     -7.27185405	     17.53709196	     17.53709196	     20.80720134	     -1.50547560	     -2.82603833	    -10.77914509	      3.41284889	      1.58296276	    -15.86403058	    -17.47998341	     -3.02434692	     31.35283068	     47.01898507	      0.00000000	      0.00000000	     12.00979141	    -15.20034091	    -15.16954561	     94.16352410	     48.06425539	      0.00000000	      0.00000000
     38.78800000	     -8.36582224	     -3.22273900	      2.39141143	      1.03609111	      0.91160071	      0.43514602	     30.88122054	     -3.67413770	    -16.99489854	     16.57083540	     16.57083540	      0.05023204	     -0.69218521	      5.18568256	      6.49232349	     -6.43627443	     -6.81750965	     18.34391166	     18.34391166	     21.30320453	     -2.04438654	     -2.64500821	    -10.42935076	      3.53321632	      1.74435401	    -16.22298829	    -17.23958844	     -3.06853283	     31.67380707	     46.98560141	      0.00000000	      0.00000000	     11.64413489	    -14.89372242	    -15.03227782	     94.94149436	     48.08094469	      0.00000000	      0.00000000
     38.80000000	     -8.30597121	     -3.23842310	      2.49128835	      1.03747166	      0.91061708	      0.43803447	     30.27634808	     -3.36679795	    -16.94830324	     16.55312075	     16.55312075	     -1.27746081	     -1.68065244	      0.17189081	      6.33273851	     -6.68533456	     -6.33042786	     19.26124199	     19.26124199	     21.91074988	     -2.68451307	     -1.67996310	    -10.27231780	      3.64498011	      1.69037476	    -16.35317476	    -17.05479121	     -3.08113599	     32.59320897	     46.86841430	      0.00000000	      0.00000000	     10.96810820	    -14.75510245	    -15.01429714	     95.77040149	     48.14355659	      0.00000000	      0.00000000
     38.81200000	     -8.28476437	     -3.40900407	      2.53861016	      1.03845297	      0.90999559	      0.44115560	     30.01720697	     -3.01558980	    -16.97072149	     17.24761281	     17.24761281	     -0.87736274	     -2.11577135	     -0.45432592	      6.53830039	     -7.18365696	     -5.90713909	     20.67920785	     20.67920785	     22.00806370	     -3.44197977	     -1.93938537	    -10.11502876	      3.86260405	      1.93662220	    -16.11747905	    -16.84670773	     -2.96370226	     32.54820199	     46.85357598	      0.00000000	      0.00000000	     10.71116053	    -14.30548060	    -14.87956160	     95.74680636	     48.13991913	      0.00000000	      0.00000000
     38.82400000	     -8.14349875	     -3.53581197	      2.59563005	      1.03921842	      0.90997024	      0.44420177	     29.69530649	     -2.72293982	    -16.81885996	     18.05362861	     18.05362861	     -0.40781410	     -2.69136217	     -1.12240813	      6.82650452	     -7.63315236	     -5.39272252	     22.44020818	     22.44020818	     21.83642716	     -4.43102531	     -2.18019799	    -10.16151576	      4.11032964	      2.19144726	    -15.59484105	    -16.67855108	     -2.84608244	     32.56725847	     46.84060131	      0.00000000	      0.00000000	     10.32008227	    -13.88423132	    -14.70474136	     95.64278457	     48.13018279	      0.00000000	      0.00000000
     38.83600000	     -7.82223094	     -3.48091095	      2.48838490	      1.04004534	      0.91087778	      0.44752685	     29.05068488	     -2.49234043	    -16.46808030	     18.59855653	     18.59855653	      0.19646337	     -2.91312018	     -1.54095477	      6.85504397	     -7.93479339	     -5.21384563	     24.13078321	     24.13078321	     21.38641823	     -5.23220914	     -2.32198400	    -10.45544762	      4.07714265	      2.55894828	    -14.83037737	    -16.28065785	     -2.73389532	     32.75445776	     46.82846679	      0.00000000	      0.00000000	      9.66195185	    -13.35166464	    -14.46938813	     95.35309937	     48.10757292	      0.00000000	      0.00000000
     38.84800000	     -7.98013011	     -3.64901767	      2.60080892	      1.03989837	      0.91085633	      0.45063623	     29.21853763	     -2.17273427	    -16.02011424	     19.54971237	     19.54971237	      0.55285303	     -4.25785700	     -2.46524436	      8.27848170	     -8.34173925	     -3.99450269	     27.14906032	     27.14906032	     20.47864918	     -7.46425211	     -3.12050557	    -10.21602358	      4.32548894	      2.57323911	    -13.68214018	    -16.23013589	     -2.30716955	     32.27094577	     46.80812794	      0.00000000	      0.00000000	      9.23357180	    -13.05280264	    -14.33000933	     94.82424504	     48.10124679	      0.00000000	      0.00000000
